<svg version="1.1" xmlns="http://www.w3.org/2000/svg" xmlns:xlink="http://www.w3.org/1999/xlink" width="346.4854" height="135.16253" viewBox="0,0,346.4854,135.16253"><g transform="translate(-64.92684,-108.86031)"><g data-paper-data="{&quot;isPaintingLayer&quot;:true}" fill-rule="nonzero" stroke-linejoin="miter" stroke-miterlimit="10" stroke-dasharray="" stroke-dashoffset="0" style="mix-blend-mode: normal"><path d="M152.07742,121.94473c0,-4.69442 3.80558,-8.5 8.5,-8.5c4.69442,0 8.5,3.80558 8.5,8.5c0,4.69442 -3.80558,8.5 -8.5,8.5c-4.69442,0 -8.5,-3.80558 -8.5,-8.5z" fill="#555555" stroke="#252525" stroke-width="1" stroke-linecap="butt"/><path d="M155.87742,132.84465l1.68675,-18.84579c0,0 1.59444,-4.63855 3.05542,-4.63855c1.59407,0 2.77108,4.51807 2.77108,4.51807l1.68675,18.96627z" fill="#555555" stroke="#252525" stroke-width="1" stroke-linecap="butt"/><path d="M160.558,110.36727v3.07229" fill="none" stroke="#ffffff" stroke-width="1" stroke-linecap="round"/><path d="M111.51154,129.33006v-18.70968h18.70968v18.70968z" fill="#d4d4d4" stroke="#e2e2e2" stroke-width="1.5" stroke-linecap="butt"/><text transform="translate(116.22196,121.3915) scale(0.07905,0.07905)" font-size="40" xml:space="preserve" fill="#000000" fill-rule="nonzero" stroke="none" stroke-width="1" stroke-linecap="butt" stroke-linejoin="miter" stroke-miterlimit="10" stroke-dasharray="" stroke-dashoffset="0" font-family="Sans Serif" font-weight="normal" text-anchor="start" style="mix-blend-mode: normal"><tspan x="0" dy="0">WASH</tspan></text><path d="M244.13495,122.65056v-7.2549h7.2549v7.2549z" fill="#9e9e9e" stroke="#cccccc" stroke-width="0.5" stroke-linecap="butt"/><path d="M246.44501,119.04305c0,0 0.40333,-0.87912 1.25,-0.87912c0.91993,0 1.25,0.87912 1.25,0.87912l0.21978,4.10561c0,0 -0.42159,0.82418 -1.52472,0.82418c-1.02988,0 -1.46978,-0.82418 -1.46978,-0.82418z" fill="#9e9e9e" stroke="#cccccc" stroke-width="0.5" stroke-linecap="butt"/><path d="M284.21898,122.65056v-7.2549h7.2549v7.2549z" fill="#9e9e9e" stroke="#cccccc" stroke-width="0.5" stroke-linecap="butt"/><path d="M286.52904,119.04305c0,0 0.40333,-0.87912 1.25,-0.87912c0.91993,0 1.25,0.87912 1.25,0.87912l0.21978,4.10561c0,0 -0.42159,0.82418 -1.52472,0.82418c-1.02988,0 -1.46978,-0.82418 -1.46978,-0.82418z" fill="#9e9e9e" stroke="#cccccc" stroke-width="0.5" stroke-linecap="butt"/><path d="M317.67315,122.65056v-7.2549h7.2549v7.2549z" fill="#9e9e9e" stroke="#cccccc" stroke-width="0.5" stroke-linecap="butt"/><path d="M319.98321,119.04305c0,0 0.40333,-0.87912 1.25,-0.87912c0.91993,0 1.25,0.87912 1.25,0.87912l0.21978,4.10561c0,0 -0.42159,0.82418 -1.52472,0.82418c-1.02988,0 -1.46978,-0.82418 -1.46978,-0.82418z" fill="#9e9e9e" stroke="#cccccc" stroke-width="0.5" stroke-linecap="butt"/><path d="M391.0642,120.13954c0,-5.54992 4.4991,-10.04902 10.04902,-10.04902c5.54992,0 10.04902,4.4991 10.04902,10.04902c0,5.54992 -4.4991,10.04902 -10.04902,10.04902c-5.54992,0 -10.04902,-4.4991 -10.04902,-10.04902z" fill="#ff5d5d" stroke="#c60000" stroke-width="0.5" stroke-linecap="butt"/><path d="M351.45712,168.33006v-18.70968h18.70968v18.70968z" fill="#d4d4d4" stroke="#e2e2e2" stroke-width="1.5" stroke-linecap="butt"/><text transform="translate(356.16754,157.89148) scale(0.07905,0.07905)" font-size="40" xml:space="preserve" fill="#000000" fill-rule="nonzero" stroke="none" stroke-width="1" stroke-linecap="butt" stroke-linejoin="miter" stroke-miterlimit="10" stroke-dasharray="" stroke-dashoffset="0" font-family="Sans Serif" font-weight="normal" text-anchor="start" style="mix-blend-mode: normal"><tspan x="0" dy="0">LAMP</tspan><tspan x="0" dy="48px"> TEST</tspan></text><path d="M155.21772,164.87277v-7.2549h7.2549v7.2549z" fill="#9e9e9e" stroke="#cccccc" stroke-width="0.5" stroke-linecap="butt"/><path d="M157.52778,161.26522c0,0 0.40333,-0.87912 1.25,-0.87912c0.91993,0 1.25,0.87912 1.25,0.87912l0.21978,4.10561c0,0 -0.42159,0.82418 -1.52472,0.82418c-1.02988,0 -1.46978,-0.82418 -1.46978,-0.82418z" fill="#9e9e9e" stroke="#cccccc" stroke-width="0.5" stroke-linecap="butt"/><path d="M268.44487,211.90922v-18.73051h18.70968v18.73051z" fill="#ffec5d" stroke="#e3c91e" stroke-width="1.5" stroke-linecap="butt"/><path d="M244.44487,211.90922v-18.73051h18.70968v18.73051z" fill="#5caeff" stroke="#1e84e3" stroke-width="1.5" stroke-linecap="butt"/><path d="M95.17684,242.45056v-7.2549h7.2549v7.2549z" fill="#9e9e9e" stroke="#cccccc" stroke-width="0.5" stroke-linecap="butt"/><path d="M97.4869,238.84305c0,0 0.40333,-0.87912 1.25,-0.87912c0.91993,0 1.25,0.87912 1.25,0.87912l0.21978,4.10561c0,0 -0.42159,0.82418 -1.52472,0.82418c-1.02988,0 -1.46978,-0.82418 -1.46978,-0.82418z" fill="#9e9e9e" stroke="#cccccc" stroke-width="0.5" stroke-linecap="butt"/><path d="M123.51017,242.45056v-7.2549h7.2549v7.2549z" fill="#9e9e9e" stroke="#cccccc" stroke-width="0.5" stroke-linecap="butt"/><path d="M125.82023,238.84305c0,0 0.40333,-0.87912 1.25,-0.87912c0.91993,0 1.25,0.87912 1.25,0.87912l0.21978,4.10561c0,0 -0.42159,0.82418 -1.52472,0.82418c-1.02988,0 -1.46978,-0.82418 -1.46978,-0.82418z" fill="#9e9e9e" stroke="#cccccc" stroke-width="0.5" stroke-linecap="butt"/><path d="M65.17684,242.45056v-7.2549h7.2549v7.2549z" fill="#9e9e9e" stroke="#cccccc" stroke-width="0.5" stroke-linecap="butt"/><path d="M67.4869,238.84305c0,0 0.40333,-0.87912 1.25,-0.87912c0.91993,0 1.25,0.87912 1.25,0.87912l0.21978,4.10561c0,0 -0.42159,0.82418 -1.52472,0.82418c-1.02988,0 -1.46978,-0.82418 -1.46978,-0.82418z" fill="#9e9e9e" stroke="#cccccc" stroke-width="0.5" stroke-linecap="butt"/><text transform="translate(271.76766,204.63973) scale(0.12922,0.12922)" font-size="40" xml:space="preserve" fill="#1f2b28" fill-rule="nonzero" stroke="none" stroke-width="1" stroke-linecap="butt" stroke-linejoin="miter" stroke-miterlimit="10" stroke-dasharray="" stroke-dashoffset="0" font-family="Sans Serif" font-weight="normal" text-anchor="start" style="mix-blend-mode: normal"><tspan x="0" dy="0">CALL</tspan></text></g></g></svg>