<svg version="1.1" xmlns="http://www.w3.org/2000/svg" xmlns:xlink="http://www.w3.org/1999/xlink" width="382.68188" height="173.63221" viewBox="0,0,382.68188,173.63221"><g transform="translate(-43.98188,-88.91343)"><g data-paper-data="{&quot;isPaintingLayer&quot;:true}" fill-rule="nonzero" stroke-linejoin="miter" stroke-miterlimit="10" stroke-dasharray="" stroke-dashoffset="0" style="mix-blend-mode: normal"><path d="M44.98188,261.54564v-171.63221h380.68188v171.63221z" fill="#484848" stroke="#000000" stroke-width="2" stroke-linecap="butt"/><path d="M377.14619,142.01164h-34.53886v-47.54701h35.43597v81.86159h-61.78491v78.72169v-39.46064h64.66711v-121.2h39.0443v161.46443h-193.18792h-178.35384v-40.4271" fill="none" stroke="#888888" stroke-width="2" stroke-linecap="round"/><path d="M381.63176,142.01164h37.67876" fill="none" stroke="#888888" stroke-width="2" stroke-linecap="round"/><path d="M267.64008,142.05498v-47.52478h72.46937v47.52478z" fill="none" stroke="#888888" stroke-width="2" stroke-linecap="butt"/><path d="M229.6077,141.45477v-47.52478h34.87515v47.52478z" fill="none" stroke="#888888" stroke-width="2" stroke-linecap="butt"/><path d="M186.49182,141.48951v-47.52478h40.07686v47.52478z" fill="none" stroke="#888888" stroke-width="2" stroke-linecap="butt"/><path d="M48.37516,141.45477v-47.52478h135.00819v47.52478z" fill="none" stroke="#888888" stroke-width="2" stroke-linecap="butt"/><path d="M151.8853,255.41306v-78.56549v38.61239h-103.50266v-76.55443v37.4336h135.00929v-35.58447" fill="none" stroke="#888888" stroke-width="2" stroke-linecap="round"/><path d="M87.66538,176.57942v38.61239" fill="none" stroke="#888888" stroke-width="2" stroke-linecap="round"/><path d="M314.91537,176.31125h-132.1938" fill="none" stroke="#888888" stroke-width="2" stroke-linecap="round"/><path d="M186.47555,141.58686v34.18806" fill="none" stroke="#888888" stroke-width="2" stroke-linecap="round"/><path d="M418.82024,176.31125h-37.53982" fill="none" stroke="#888888" stroke-width="2" stroke-linecap="round"/><path d="M418.95431,215.59401h-40.75752" fill="none" stroke="#888888" stroke-width="2" stroke-linecap="round"/><path d="M154.9,225.50016v-46.2h157.8v46.2z" fill="#464646" stroke="#000000" stroke-width="2" stroke-linecap="butt"/><text transform="translate(61.41913,101.19312) scale(0.11315,0.11315)" font-size="40" xml:space="preserve" fill="#ffffff" fill-rule="nonzero" stroke="none" stroke-width="1" stroke-linecap="butt" stroke-linejoin="miter" stroke-miterlimit="10" stroke-dasharray="" stroke-dashoffset="0" font-family="Sans Serif" font-weight="normal" text-anchor="start" style="mix-blend-mode: normal"><tspan x="0" dy="0">CAR HEAT                                                             WIPER                      TOW MODE           TRACK BRAKE                  COUPLER CONTROL                 PANTOGRAPH          EMERGENCY</tspan></text><text transform="translate(57.41913,149.85969) scale(0.11315,0.11315)" font-size="40" xml:space="preserve" fill="#ffffff" fill-rule="nonzero" stroke="none" stroke-width="1" stroke-linecap="butt" stroke-linejoin="miter" stroke-miterlimit="10" stroke-dasharray="" stroke-dashoffset="0" font-family="Sans Serif" font-weight="normal" text-anchor="start" style="mix-blend-mode: normal"><tspan x="0" dy="0">CAB LIGHT                   INT. LIGHT                 HEAD LIGHT                                                                                                                                                                                          MIRROR</tspan></text><text transform="translate(58.0858,183.52639) scale(0.11315,0.11315)" font-size="40" xml:space="preserve" fill="#ffffff" fill-rule="nonzero" stroke="none" stroke-width="1" stroke-linecap="butt" stroke-linejoin="miter" stroke-miterlimit="10" stroke-dasharray="" stroke-dashoffset="0" font-family="Sans Serif" font-weight="normal" text-anchor="start" style="mix-blend-mode: normal"><tspan x="0" dy="0">TRAIN ID                                                                                                                                                                                                                                                                             STEPS</tspan></text><text transform="translate(58.0858,223.52639) scale(0.11315,0.11315)" font-size="40" xml:space="preserve" fill="#ffffff" fill-rule="nonzero" stroke="none" stroke-width="1" stroke-linecap="butt" stroke-linejoin="miter" stroke-miterlimit="10" stroke-dasharray="" stroke-dashoffset="0" font-family="Sans Serif" font-weight="normal" text-anchor="start" style="mix-blend-mode: normal"><tspan x="0" dy="0">                        LEFT DOORS                                                                                                                                                                                                            RIGHT DOORS</tspan></text><path d="M107.84687,129.59447v-19.23856h2.41936v19.23856z" fill="#555555" stroke="#252525" stroke-width="1" stroke-linecap="butt"/><path d="M131.45153,129.59447v-19.23856h2.41935v19.23856z" fill="#555555" stroke="#252525" stroke-width="1" stroke-linecap="butt"/><path d="M197.34487,129.33004v-18.70968h18.70968v18.70968z" fill="#d4d4d4" stroke="#e2e2e2" stroke-width="1.5" stroke-linecap="butt"/><path d="M193.68021,129.59447v-19.23856h2.41935v19.23856z" fill="#555555" stroke="#252525" stroke-width="1" stroke-linecap="butt"/><path d="M217.28486,129.59447v-19.23856h2.41935v19.23856z" fill="#555555" stroke="#252525" stroke-width="1" stroke-linecap="butt"/><path d="M203.28427,139.73039l-6.89745,-37.56648l13.93375,-2.55832l6.89746,37.56648z" fill="#ffffff" stroke="#dadada" stroke-width="0.5" stroke-linecap="butt"/><text transform="translate(199.664,111.55292) rotate(-10.40398) scale(0.08168,0.08168)" font-size="40" xml:space="preserve" fill="#000000" fill-rule="nonzero" stroke="none" stroke-width="1" stroke-linecap="butt" stroke-linejoin="miter" stroke-miterlimit="10" stroke-dasharray="" stroke-dashoffset="0" font-family="Sans Serif" font-weight="normal" text-anchor="start" style="mix-blend-mode: normal"><tspan x="0" dy="0">DON'T</tspan><tspan x="0" dy="46.150000000000006px">TOUCH</tspan><tspan x="0" dy="46.150000000000006px"> </tspan><tspan x="0" dy="46.150000000000006px"> </tspan><tspan x="0" dy="46.150000000000006px"> </tspan><tspan x="0" dy="46.150000000000006px">SHOP</tspan><tspan x="0" dy="46.150000000000006px">ONLY</tspan></text><text transform="translate(85.30242,120.04673) scale(0.06754,0.06754)" font-size="40" xml:space="preserve" fill="#ffffff" fill-rule="nonzero" stroke="none" stroke-width="1" stroke-linecap="butt" stroke-linejoin="miter" stroke-miterlimit="10" stroke-dasharray="" stroke-dashoffset="0" font-family="Sans Serif" font-weight="normal" text-anchor="start" style="mix-blend-mode: normal"><tspan x="0" dy="0">FAN 2</tspan></text><text transform="translate(80.71909,109.90784) scale(0.06754,0.06754)" font-size="40" xml:space="preserve" fill="#ffffff" fill-rule="nonzero" stroke="none" stroke-width="1" stroke-linecap="butt" stroke-linejoin="miter" stroke-miterlimit="10" stroke-dasharray="" stroke-dashoffset="0" font-family="Sans Serif" font-weight="normal" text-anchor="start" style="mix-blend-mode: normal"><tspan x="0" dy="0">FAN 1</tspan></text><text transform="translate(68.66354,105.04673) scale(0.06754,0.06754)" font-size="40" xml:space="preserve" fill="#ffffff" fill-rule="nonzero" stroke="none" stroke-width="1" stroke-linecap="butt" stroke-linejoin="miter" stroke-miterlimit="10" stroke-dasharray="" stroke-dashoffset="0" font-family="Sans Serif" font-weight="normal" text-anchor="start" style="mix-blend-mode: normal"><tspan x="0" dy="0">OFF</tspan></text><text transform="translate(54.19131,110.04673) scale(0.06754,0.06754)" font-size="40" xml:space="preserve" fill="#ffffff" fill-rule="nonzero" stroke="none" stroke-width="1" stroke-linecap="butt" stroke-linejoin="miter" stroke-miterlimit="10" stroke-dasharray="" stroke-dashoffset="0" font-family="Sans Serif" font-weight="normal" text-anchor="start" style="mix-blend-mode: normal"><tspan x="0" dy="0">??????</tspan></text><text transform="translate(50.5802,120.4634) scale(0.06754,0.06754)" font-size="40" xml:space="preserve" fill="#ffffff" fill-rule="nonzero" stroke="none" stroke-width="1" stroke-linecap="butt" stroke-linejoin="miter" stroke-miterlimit="10" stroke-dasharray="" stroke-dashoffset="0" font-family="Sans Serif" font-weight="normal" text-anchor="start" style="mix-blend-mode: normal"><tspan x="0" dy="0">HEAT</tspan></text><text transform="translate(158.21909,106.29673) scale(0.06754,0.06754)" font-size="40" xml:space="preserve" fill="#ffffff" fill-rule="nonzero" stroke="none" stroke-width="1" stroke-linecap="butt" stroke-linejoin="miter" stroke-miterlimit="10" stroke-dasharray="" stroke-dashoffset="0" font-family="Sans Serif" font-weight="normal" text-anchor="start" style="mix-blend-mode: normal"><tspan x="0" dy="0">OFF</tspan></text><text transform="translate(170.02464,110.4634) scale(0.06754,0.06754)" font-size="40" xml:space="preserve" fill="#ffffff" fill-rule="nonzero" stroke="none" stroke-width="1" stroke-linecap="butt" stroke-linejoin="miter" stroke-miterlimit="10" stroke-dasharray="" stroke-dashoffset="0" font-family="Sans Serif" font-weight="normal" text-anchor="start" style="mix-blend-mode: normal"><tspan x="0" dy="0">DELAY</tspan></text><text transform="translate(174.88575,121.85229) scale(0.06754,0.06754)" font-size="40" xml:space="preserve" fill="#ffffff" fill-rule="nonzero" stroke="none" stroke-width="1" stroke-linecap="butt" stroke-linejoin="miter" stroke-miterlimit="10" stroke-dasharray="" stroke-dashoffset="0" font-family="Sans Serif" font-weight="normal" text-anchor="start" style="mix-blend-mode: normal"><tspan x="0" dy="0">LOW</tspan></text><text transform="translate(171.41353,133.51889) scale(0.06754,0.06754)" font-size="40" xml:space="preserve" fill="#ffffff" fill-rule="nonzero" stroke="none" stroke-width="1" stroke-linecap="butt" stroke-linejoin="miter" stroke-miterlimit="10" stroke-dasharray="" stroke-dashoffset="0" font-family="Sans Serif" font-weight="normal" text-anchor="start" style="mix-blend-mode: normal"><tspan x="0" dy="0">HIGH</tspan></text><path d="M282.73535,128.00304v-17.67442h9.24419v17.67442z" fill="#737373" stroke="#000000" stroke-width="1" stroke-linecap="butt"/><text transform="translate(244.97504,109.263) scale(0.06754,0.06754)" font-size="40" xml:space="preserve" fill="#ffffff" fill-rule="nonzero" stroke="none" stroke-width="1" stroke-linecap="butt" stroke-linejoin="miter" stroke-miterlimit="10" stroke-dasharray="" stroke-dashoffset="0" font-family="Sans Serif" font-weight="normal" text-anchor="start" style="mix-blend-mode: normal"><tspan x="0" dy="0">ON</tspan></text><text transform="translate(280.05907,108.99515) scale(0.06754,0.06754)" font-size="40" xml:space="preserve" fill="#ffffff" fill-rule="nonzero" stroke="none" stroke-width="1" stroke-linecap="butt" stroke-linejoin="miter" stroke-miterlimit="10" stroke-dasharray="" stroke-dashoffset="0" font-family="Sans Serif" font-weight="normal" text-anchor="start" style="mix-blend-mode: normal"><tspan x="0" dy="0">UNCOUPLE</tspan></text><text transform="translate(281.04121,131.4058) scale(0.06754,0.06754)" font-size="40" xml:space="preserve" fill="#ffffff" fill-rule="nonzero" stroke="none" stroke-width="1" stroke-linecap="butt" stroke-linejoin="miter" stroke-miterlimit="10" stroke-dasharray="" stroke-dashoffset="0" font-family="Sans Serif" font-weight="normal" text-anchor="start" style="mix-blend-mode: normal"><tspan x="0" dy="0">CONNECT</tspan></text><path d="M316.18952,128.00304v-17.67442h9.24419v17.67442z" fill="#737373" stroke="#000000" stroke-width="1" stroke-linecap="butt"/><text transform="translate(313.51324,108.99515) scale(0.06754,0.06754)" font-size="40" xml:space="preserve" fill="#ffffff" fill-rule="nonzero" stroke="none" stroke-width="1" stroke-linecap="butt" stroke-linejoin="miter" stroke-miterlimit="10" stroke-dasharray="" stroke-dashoffset="0" font-family="Sans Serif" font-weight="normal" text-anchor="start" style="mix-blend-mode: normal"><tspan x="0" dy="0">UNCOUPLE</tspan></text><text transform="translate(314.49538,131.4058) scale(0.06754,0.06754)" font-size="40" xml:space="preserve" fill="#ffffff" fill-rule="nonzero" stroke="none" stroke-width="1" stroke-linecap="butt" stroke-linejoin="miter" stroke-miterlimit="10" stroke-dasharray="" stroke-dashoffset="0" font-family="Sans Serif" font-weight="normal" text-anchor="start" style="mix-blend-mode: normal"><tspan x="0" dy="0">CONNECT</tspan></text><text transform="translate(358.51324,108.99515) scale(0.06754,0.06754)" font-size="40" xml:space="preserve" fill="#ffffff" fill-rule="nonzero" stroke="none" stroke-width="1" stroke-linecap="butt" stroke-linejoin="miter" stroke-miterlimit="10" stroke-dasharray="" stroke-dashoffset="0" font-family="Sans Serif" font-weight="normal" text-anchor="start" style="mix-blend-mode: normal"><tspan x="0" dy="0">UP</tspan></text><text transform="translate(356.16205,131.4058) scale(0.06754,0.06754)" font-size="40" xml:space="preserve" fill="#ffffff" fill-rule="nonzero" stroke="none" stroke-width="1" stroke-linecap="butt" stroke-linejoin="miter" stroke-miterlimit="10" stroke-dasharray="" stroke-dashoffset="0" font-family="Sans Serif" font-weight="normal" text-anchor="start" style="mix-blend-mode: normal"><tspan x="0" dy="0">DOWN</tspan></text><path d="M389.21886,120.13956c0,-6.30796 5.11361,-11.42157 11.42157,-11.42157c6.30796,0 11.42157,5.11361 11.42157,11.42157c0,6.30796 -5.11361,11.42157 -11.42157,11.42157c-6.30796,0 -11.42157,-5.11361 -11.42157,-11.42157z" fill="#9e9e9e" stroke="#cccccc" stroke-width="0.5" stroke-linecap="butt"/><path d="M193.68021,168.59452v-19.23856h2.41935v19.23856z" fill="#555555" stroke="#252525" stroke-width="1" stroke-linecap="butt"/><path d="M217.28486,168.59452v-19.23856h2.41935v19.23856z" fill="#555555" stroke="#252525" stroke-width="1" stroke-linecap="butt"/><path d="M233.68021,168.59452v-19.23856h2.41935v19.23856z" fill="#555555" stroke="#252525" stroke-width="1" stroke-linecap="butt"/><path d="M257.28486,168.59452v-19.23856h2.41935v19.23856z" fill="#555555" stroke="#252525" stroke-width="1" stroke-linecap="butt"/><path d="M197.34487,168.30924v-18.73051h18.70968v18.73051z" fill="#d4b9a9" stroke="#e3d5cd" stroke-width="1.5" stroke-linecap="butt"/><path d="M237.34487,168.30924v-18.73051h18.70968v18.73051z" fill="#add4a9" stroke="#cee3cc" stroke-width="1.5" stroke-linecap="butt"/><path d="M310.51154,168.30924v-18.73051h18.70968v18.73051z" fill="#a9c7d4" stroke="#ccdce3" stroke-width="1.5" stroke-linecap="butt"/><path d="M306.84688,168.59452v-19.23856h2.41935v19.23856z" fill="#555555" stroke="#252525" stroke-width="1" stroke-linecap="butt"/><path d="M330.45153,168.59452v-19.23856h2.41935v19.23856z" fill="#555555" stroke="#252525" stroke-width="1" stroke-linecap="butt"/><path d="M346.84688,168.59452v-19.23856h2.41935v19.23856z" fill="#555555" stroke="#252525" stroke-width="1" stroke-linecap="butt"/><path d="M370.45153,168.59452v-19.23856h2.41935v19.23856z" fill="#555555" stroke="#252525" stroke-width="1" stroke-linecap="butt"/><path d="M389.21886,162.6395c0,-6.30796 5.11361,-11.42157 11.42157,-11.42157c6.30796,0 11.42157,5.11361 11.42157,11.42157c0,6.30796 -5.11361,11.42157 -11.42157,11.42157c-6.30796,0 -11.42157,-5.11361 -11.42157,-11.42157z" fill="#4c4c4c" stroke="#000000" stroke-width="0.5" stroke-linecap="butt"/><path d="M390.59141,162.6395c0,-5.54992 4.4991,-10.04902 10.04902,-10.04902c5.54992,0 10.04902,4.4991 10.04902,10.04902c0,5.54992 -4.4991,10.04902 -10.04902,10.04902c-5.54992,0 -10.04902,-4.4991 -10.04902,-10.04902z" fill="#4c4c4c" stroke="#000000" stroke-width="0.5" stroke-linecap="butt"/><path d="M391.84386,162.6395c0,-4.85821 3.93836,-8.79657 8.79657,-8.79657c4.85821,0 8.79657,3.93836 8.79657,8.79657c0,4.85821 -3.93836,8.79657 -8.79657,8.79657c-4.85821,0 -8.79657,-3.93836 -8.79657,-8.79657z" fill="#4c4c4c" stroke="#000000" stroke-width="0.5" stroke-linecap="butt"/><path d="M392.90096,162.6395c0,-4.27439 3.46508,-7.73947 7.73947,-7.73947c4.27439,0 7.73947,3.46508 7.73947,7.73947c0,4.27439 -3.46508,7.73947 -7.73947,7.73947c-4.27439,0 -7.73947,-3.46508 -7.73947,-7.73947z" fill="#4c4c4c" stroke="#000000" stroke-width="0.5" stroke-linecap="butt"/><path d="M394.00457,162.6395c0,-3.66488 2.97097,-6.63586 6.63586,-6.63586c3.66488,0 6.63586,2.97097 6.63586,6.63586c0,3.66488 -2.97097,6.63586 -6.63586,6.63586c-3.66488,0 -6.63586,-2.97097 -6.63586,-6.63586z" fill="#4c4c4c" stroke="#000000" stroke-width="0.5" stroke-linecap="butt"/><path d="M394.80202,162.6395c0,-3.22447 2.61395,-5.83841 5.83841,-5.83841c3.22447,0 5.83841,2.61395 5.83841,5.83841c0,3.22447 -2.61395,5.83841 -5.83841,5.83841c-3.22447,0 -5.83841,-2.61395 -5.83841,-5.83841z" fill="#4c4c4c" stroke="#000000" stroke-width="0.5" stroke-linecap="butt"/><path d="M395.52968,162.6395c0,-2.82259 2.28816,-5.11075 5.11075,-5.11075c2.82259,0 5.11075,2.28816 5.11075,5.11075c0,2.82259 -2.28816,5.11075 -5.11075,5.11075c-2.82259,0 -5.11075,-2.28816 -5.11075,-5.11075z" fill="#4c4c4c" stroke="#000000" stroke-width="0.5" stroke-linecap="butt"/><path d="M396.14385,162.6395c0,-2.48339 2.01319,-4.49658 4.49658,-4.49658c2.48339,0 4.49658,2.01319 4.49658,4.49658c0,2.48339 -2.01319,4.49658 -4.49658,4.49658c-2.48339,0 -4.49658,-2.01319 -4.49658,-4.49658z" fill="#4c4c4c" stroke="#000000" stroke-width="0.5" stroke-linecap="butt"/><path d="M396.79029,162.6395c0,-2.12638 1.72376,-3.85014 3.85014,-3.85014c2.12638,0 3.85014,1.72376 3.85014,3.85014c0,2.12638 -1.72376,3.85014 -3.85014,3.85014c-2.12638,0 -3.85014,-1.72376 -3.85014,-3.85014z" fill="#4c4c4c" stroke="#000000" stroke-width="0.5" stroke-linecap="butt"/><path d="M397.25297,162.6395c0,-1.87084 1.51662,-3.38746 3.38746,-3.38746c1.87084,0 3.38746,1.51662 3.38746,3.38746c0,1.87084 -1.51662,3.38746 -3.38746,3.38746c-1.87084,0 -3.38746,-1.51662 -3.38746,-3.38746z" fill="#4c4c4c" stroke="#000000" stroke-width="0.5" stroke-linecap="butt"/><path d="M397.67516,162.6395c0,-1.63767 1.3276,-2.96527 2.96527,-2.96527c1.63767,0 2.96527,1.3276 2.96527,2.96527c0,1.63767 -1.3276,2.96527 -2.96527,2.96527c-1.63767,0 -2.96527,-1.3276 -2.96527,-2.96527z" fill="#4c4c4c" stroke="#000000" stroke-width="0.5" stroke-linecap="butt"/><path d="M398.0315,162.6395c0,-1.44087 1.16806,-2.60893 2.60893,-2.60893c1.44087,0 2.60893,1.16806 2.60893,2.60893c0,1.44087 -1.16806,2.60893 -2.60893,2.60893c-1.44087,0 -2.60893,-1.16806 -2.60893,-2.60893z" fill="#4c4c4c" stroke="#000000" stroke-width="0.5" stroke-linecap="butt"/><text transform="translate(156.86393,154.04073) scale(0.06754,0.06754)" font-size="40" xml:space="preserve" fill="#ffffff" fill-rule="nonzero" stroke="none" stroke-width="1" stroke-linecap="butt" stroke-linejoin="miter" stroke-miterlimit="10" stroke-dasharray="" stroke-dashoffset="0" font-family="Sans Serif" font-weight="normal" text-anchor="start" style="mix-blend-mode: normal"><tspan x="0" dy="0">ON</tspan></text><text transform="translate(156.5306,170.8185) scale(0.06754,0.06754)" font-size="40" xml:space="preserve" fill="#ffffff" fill-rule="nonzero" stroke="none" stroke-width="1" stroke-linecap="butt" stroke-linejoin="miter" stroke-miterlimit="10" stroke-dasharray="" stroke-dashoffset="0" font-family="Sans Serif" font-weight="normal" text-anchor="start" style="mix-blend-mode: normal"><tspan x="0" dy="0">OFF</tspan></text><text transform="translate(165.08615,162.15184) scale(0.06754,0.06754)" font-size="40" xml:space="preserve" fill="#ffffff" fill-rule="nonzero" stroke="none" stroke-width="1" stroke-linecap="butt" stroke-linejoin="miter" stroke-miterlimit="10" stroke-dasharray="" stroke-dashoffset="0" font-family="Sans Serif" font-weight="normal" text-anchor="start" style="mix-blend-mode: normal"><tspan x="0" dy="0">LOW</tspan></text><text transform="translate(112.30837,154.04073) scale(0.06754,0.06754)" font-size="40" xml:space="preserve" fill="#ffffff" fill-rule="nonzero" stroke="none" stroke-width="1" stroke-linecap="butt" stroke-linejoin="miter" stroke-miterlimit="10" stroke-dasharray="" stroke-dashoffset="0" font-family="Sans Serif" font-weight="normal" text-anchor="start" style="mix-blend-mode: normal"><tspan x="0" dy="0">ON</tspan></text><text transform="translate(111.97504,170.8185) scale(0.06754,0.06754)" font-size="40" xml:space="preserve" fill="#ffffff" fill-rule="nonzero" stroke="none" stroke-width="1" stroke-linecap="butt" stroke-linejoin="miter" stroke-miterlimit="10" stroke-dasharray="" stroke-dashoffset="0" font-family="Sans Serif" font-weight="normal" text-anchor="start" style="mix-blend-mode: normal"><tspan x="0" dy="0">OFF</tspan></text><text transform="translate(66.86393,154.04073) scale(0.06754,0.06754)" font-size="40" xml:space="preserve" fill="#ffffff" fill-rule="nonzero" stroke="none" stroke-width="1" stroke-linecap="butt" stroke-linejoin="miter" stroke-miterlimit="10" stroke-dasharray="" stroke-dashoffset="0" font-family="Sans Serif" font-weight="normal" text-anchor="start" style="mix-blend-mode: normal"><tspan x="0" dy="0">ON</tspan></text><text transform="translate(66.5306,170.8185) scale(0.06754,0.06754)" font-size="40" xml:space="preserve" fill="#ffffff" fill-rule="nonzero" stroke="none" stroke-width="1" stroke-linecap="butt" stroke-linejoin="miter" stroke-miterlimit="10" stroke-dasharray="" stroke-dashoffset="0" font-family="Sans Serif" font-weight="normal" text-anchor="start" style="mix-blend-mode: normal"><tspan x="0" dy="0">OFF</tspan></text><text transform="translate(398.51324,187.99514) scale(0.06754,0.06754)" font-size="40" xml:space="preserve" fill="#ffffff" fill-rule="nonzero" stroke="none" stroke-width="1" stroke-linecap="butt" stroke-linejoin="miter" stroke-miterlimit="10" stroke-dasharray="" stroke-dashoffset="0" font-family="Sans Serif" font-weight="normal" text-anchor="start" style="mix-blend-mode: normal"><tspan x="0" dy="0">UP</tspan></text><text transform="translate(396.16205,210.40585) scale(0.06754,0.06754)" font-size="40" xml:space="preserve" fill="#ffffff" fill-rule="nonzero" stroke="none" stroke-width="1" stroke-linecap="butt" stroke-linejoin="miter" stroke-miterlimit="10" stroke-dasharray="" stroke-dashoffset="0" font-family="Sans Serif" font-weight="normal" text-anchor="start" style="mix-blend-mode: normal"><tspan x="0" dy="0">DOWN</tspan></text><path d="M266.32586,214.02838v-22.9h22.9v22.9z" fill="#000000" stroke="#2c2c2c" stroke-width="1" stroke-linecap="butt"/><path d="M242.32586,214.02838v-22.9h22.9v22.9z" fill="#000000" stroke="#2c2c2c" stroke-width="1" stroke-linecap="butt"/><path d="M218.32586,214.02838v-22.9h22.9v22.9z" fill="#000000" stroke="#2c2c2c" stroke-width="1" stroke-linecap="butt"/><path d="M194.32586,214.02838v-22.9h22.9v22.9z" fill="#000000" stroke="#2c2c2c" stroke-width="1" stroke-linecap="butt"/><text transform="translate(359.75769,228.79516) scale(0.06754,0.06754)" font-size="40" xml:space="preserve" fill="#ffffff" fill-rule="nonzero" stroke="none" stroke-width="1" stroke-linecap="butt" stroke-linejoin="miter" stroke-miterlimit="10" stroke-dasharray="" stroke-dashoffset="0" font-family="Sans Serif" font-weight="normal" text-anchor="start" style="mix-blend-mode: normal"><tspan x="0" dy="0">ALL DOORS</tspan><tspan x="0" dy="48px">     OPEN</tspan></text><text transform="translate(360.4065,251.20583) scale(0.06754,0.06754)" font-size="40" xml:space="preserve" fill="#ffffff" fill-rule="nonzero" stroke="none" stroke-width="1" stroke-linecap="butt" stroke-linejoin="miter" stroke-miterlimit="10" stroke-dasharray="" stroke-dashoffset="0" font-family="Sans Serif" font-weight="normal" text-anchor="start" style="mix-blend-mode: normal"><tspan x="0" dy="0">ALL CLOSE</tspan></text><text transform="translate(387.09102,229.12847) scale(0.06754,0.06754)" font-size="40" xml:space="preserve" fill="#ffffff" fill-rule="nonzero" stroke="none" stroke-width="1" stroke-linecap="butt" stroke-linejoin="miter" stroke-miterlimit="10" stroke-dasharray="" stroke-dashoffset="0" font-family="Sans Serif" font-weight="normal" text-anchor="start" style="mix-blend-mode: normal"><tspan x="0" dy="0">FRONT OPEN</tspan></text><text transform="translate(386.51761,251.20583) scale(0.06754,0.06754)" font-size="40" xml:space="preserve" fill="#ffffff" fill-rule="nonzero" stroke="none" stroke-width="1" stroke-linecap="butt" stroke-linejoin="miter" stroke-miterlimit="10" stroke-dasharray="" stroke-dashoffset="0" font-family="Sans Serif" font-weight="normal" text-anchor="start" style="mix-blend-mode: normal"><tspan x="0" dy="0">FRONT CLOSE</tspan></text><text transform="translate(329.75768,228.79516) scale(0.06754,0.06754)" font-size="40" xml:space="preserve" fill="#ffffff" fill-rule="nonzero" stroke="none" stroke-width="1" stroke-linecap="butt" stroke-linejoin="miter" stroke-miterlimit="10" stroke-dasharray="" stroke-dashoffset="0" font-family="Sans Serif" font-weight="normal" text-anchor="start" style="mix-blend-mode: normal"><tspan x="0" dy="0">ALL DOORS</tspan><tspan x="0" dy="48px">   UNLOCK</tspan></text><text transform="translate(334.32892,251.20583) scale(0.06754,0.06754)" font-size="40" xml:space="preserve" fill="#ffffff" fill-rule="nonzero" stroke="none" stroke-width="1" stroke-linecap="butt" stroke-linejoin="miter" stroke-miterlimit="10" stroke-dasharray="" stroke-dashoffset="0" font-family="Sans Serif" font-weight="normal" text-anchor="start" style="mix-blend-mode: normal"><tspan x="0" dy="0">LOCK</tspan></text><text transform="translate(91.42435,228.79516) scale(0.06754,0.06754)" font-size="40" xml:space="preserve" fill="#ffffff" fill-rule="nonzero" stroke="none" stroke-width="1" stroke-linecap="butt" stroke-linejoin="miter" stroke-miterlimit="10" stroke-dasharray="" stroke-dashoffset="0" font-family="Sans Serif" font-weight="normal" text-anchor="start" style="mix-blend-mode: normal"><tspan x="0" dy="0">ALL DOORS</tspan><tspan x="0" dy="48px">     OPEN</tspan></text><text transform="translate(92.07316,251.20583) scale(0.06754,0.06754)" font-size="40" xml:space="preserve" fill="#ffffff" fill-rule="nonzero" stroke="none" stroke-width="1" stroke-linecap="butt" stroke-linejoin="miter" stroke-miterlimit="10" stroke-dasharray="" stroke-dashoffset="0" font-family="Sans Serif" font-weight="normal" text-anchor="start" style="mix-blend-mode: normal"><tspan x="0" dy="0">ALL CLOSE</tspan></text><text transform="translate(118.75769,229.12847) scale(0.06754,0.06754)" font-size="40" xml:space="preserve" fill="#ffffff" fill-rule="nonzero" stroke="none" stroke-width="1" stroke-linecap="butt" stroke-linejoin="miter" stroke-miterlimit="10" stroke-dasharray="" stroke-dashoffset="0" font-family="Sans Serif" font-weight="normal" text-anchor="start" style="mix-blend-mode: normal"><tspan x="0" dy="0">FRONT OPEN</tspan></text><text transform="translate(118.18427,251.20583) scale(0.06754,0.06754)" font-size="40" xml:space="preserve" fill="#ffffff" fill-rule="nonzero" stroke="none" stroke-width="1" stroke-linecap="butt" stroke-linejoin="miter" stroke-miterlimit="10" stroke-dasharray="" stroke-dashoffset="0" font-family="Sans Serif" font-weight="normal" text-anchor="start" style="mix-blend-mode: normal"><tspan x="0" dy="0">FRONT CLOSE</tspan></text><text transform="translate(61.42435,228.79516) scale(0.06754,0.06754)" font-size="40" xml:space="preserve" fill="#ffffff" fill-rule="nonzero" stroke="none" stroke-width="1" stroke-linecap="butt" stroke-linejoin="miter" stroke-miterlimit="10" stroke-dasharray="" stroke-dashoffset="0" font-family="Sans Serif" font-weight="normal" text-anchor="start" style="mix-blend-mode: normal"><tspan x="0" dy="0">ALL DOORS</tspan><tspan x="0" dy="48px">   UNLOCK</tspan></text><text transform="translate(64.96205,251.20583) scale(0.06754,0.06754)" font-size="40" xml:space="preserve" fill="#ffffff" fill-rule="nonzero" stroke="none" stroke-width="1" stroke-linecap="butt" stroke-linejoin="miter" stroke-miterlimit="10" stroke-dasharray="" stroke-dashoffset="0" font-family="Sans Serif" font-weight="normal" text-anchor="start" style="mix-blend-mode: normal"><tspan x="0" dy="0">LOCK</tspan></text></g></g></svg>