<svg version="1.1" xmlns="http://www.w3.org/2000/svg" xmlns:xlink="http://www.w3.org/1999/xlink" width="35.125" height="41.76786" viewBox="0,0,35.125,41.76786"><defs><radialGradient cx="170.5" cy="184.44643" r="16.5625" gradientUnits="userSpaceOnUse" id="color-1"><stop offset="0" stop-color="#2aa3ff"/><stop offset="1" stop-color="#2aa3ff" stop-opacity="0"/></radialGradient><radialGradient cx="170.5" cy="176.80357" r="17.5625" gradientUnits="userSpaceOnUse" id="color-2"><stop offset="0" stop-color="#ffb3b3"/><stop offset="1" stop-color="#ffb3b3" stop-opacity="0"/></radialGradient></defs><g transform="translate(-152.9375,-159.24107)"><g data-paper-data="{&quot;isPaintingLayer&quot;:true}" fill-rule="nonzero" stroke="none" stroke-width="0" stroke-linecap="butt" stroke-linejoin="miter" stroke-miterlimit="10" stroke-dasharray="" stroke-dashoffset="0" style="mix-blend-mode: normal"><path d="M153.9375,184.44643c0,-9.14722 7.41528,-16.5625 16.5625,-16.5625c9.14722,0 16.5625,7.41528 16.5625,16.5625c0,9.14722 -7.41528,16.5625 -16.5625,16.5625c-9.14722,0 -16.5625,-7.41528 -16.5625,-16.5625z" fill="url(#color-1)"/><path d="M152.9375,176.80357c0,-9.69951 7.86299,-17.5625 17.5625,-17.5625c9.69951,0 17.5625,7.86299 17.5625,17.5625c0,9.69951 -7.86299,17.5625 -17.5625,17.5625c-9.69951,0 -17.5625,-7.86299 -17.5625,-17.5625z" fill="url(#color-2)"/></g></g></svg>