<svg version="1.1" xmlns="http://www.w3.org/2000/svg" xmlns:xlink="http://www.w3.org/1999/xlink" width="35.02368" height="13.79752" viewBox="0,0,35.02368,13.79752"><g transform="translate(-168.1113,-173.51927)"><g data-paper-data="{&quot;isPaintingLayer&quot;:true}" fill-rule="nonzero" stroke-width="1" stroke-linecap="butt" stroke-linejoin="miter" stroke-miterlimit="10" stroke-dasharray="" stroke-dashoffset="0" style="mix-blend-mode: normal"><path d="M168.6113,176.73321c0,-1.00423 0.81409,-1.81833 1.81832,-1.81833c1.00423,0 1.81833,0.81409 1.81833,1.81833c0,1.00423 -0.81409,1.81832 -1.81833,1.81832c-1.00423,0 -1.81832,-0.81409 -1.81832,-1.81832z" fill="#ff6969" stroke="#adadad"/><text transform="translate(174.16198,178.12288) scale(0.10583,0.10583)" font-size="40" xml:space="preserve" fill="#ffffff" fill-rule="nonzero" stroke="none" stroke-width="1" stroke-linecap="butt" stroke-linejoin="miter" stroke-miterlimit="10" stroke-dasharray="" stroke-dashoffset="0" font-family="Sans Serif" font-weight="normal" text-anchor="start" style="mix-blend-mode: normal"><tspan x="0" dy="0">Stop Request</tspan></text><path d="M168.63483,184.60425c0,-1.00423 0.81409,-1.81833 1.81833,-1.81833c1.00423,0 1.81832,0.81409 1.81832,1.81833c0,1.00423 -0.81409,1.81833 -1.81832,1.81833c-1.00423,0 -1.81833,-0.8141 -1.81833,-1.81833z" fill="#67bdff" stroke="#adadad"/><text transform="translate(174.18551,185.99392) scale(0.10583,0.10583)" font-size="40" xml:space="preserve" fill="#ffffff" fill-rule="nonzero" stroke="none" stroke-width="1" stroke-linecap="butt" stroke-linejoin="miter" stroke-miterlimit="10" stroke-dasharray="" stroke-dashoffset="0" font-family="Sans Serif" font-weight="normal" text-anchor="start" style="mix-blend-mode: normal"><tspan x="0" dy="0">ADA Stop Req.</tspan></text></g></g></svg>